<svg id="Capa_1" data-name="Capa 1" xmlns="http://www.w3.org/2000/svg" xmlns:xlink="http://www.w3.org/1999/xlink" viewBox="0 0 1920 3550.71"><defs><style>.cls-1{fill:none;}.cls-2{clip-path:url(#clip-path);}.cls-3{opacity:0.95;}.cls-4{fill:url(#Degradado_sin_nombre);}.cls-5{fill:url(#Degradado_sin_nombre_3);}.cls-6{fill:url(#Degradado_sin_nombre_4);}.cls-7{fill:url(#Degradado_sin_nombre_5);}.cls-8{fill:url(#Degradado_sin_nombre_7);}.cls-9{fill:url(#Degradado_sin_nombre_8);}.cls-10{fill:url(#Degradado_sin_nombre_13);}.cls-11{fill:url(#Degradado_sin_nombre_14);}.cls-12{fill:url(#Degradado_sin_nombre_15);}.cls-13{fill:url(#Degradado_sin_nombre_16);}.cls-14{fill:url(#Degradado_sin_nombre_17);}.cls-15{fill:url(#Degradado_sin_nombre_18);}.cls-16{fill:url(#Degradado_sin_nombre_19);}.cls-17{fill:url(#Degradado_sin_nombre_20);}</style><clipPath id="clip-path"><rect class="cls-1" width="1920" height="4499"/></clipPath><linearGradient id="Degradado_sin_nombre" x1="653.22" y1="2646.95" x2="654.41" y2="2645.85" gradientTransform="matrix(1333.26, 407.62, 433.02, -1416.33, -2017668.95, 3482586.94)" gradientUnits="userSpaceOnUse"><stop offset="0" stop-color="#52e4ff"/><stop offset="1" stop-color="#4b3eff"/></linearGradient><linearGradient id="Degradado_sin_nombre_3" x1="652.55" y1="2647.88" x2="653.65" y2="2649.18" gradientTransform="matrix(683.99, 209.12, 179.91, -588.46, -923004.25, 1422016.78)" gradientUnits="userSpaceOnUse"><stop offset="0" stop-color="#52e4ff"/><stop offset="1" stop-color="#6a95ff" stop-opacity="0"/></linearGradient><linearGradient id="Degradado_sin_nombre_4" x1="653.42" y1="2648.12" x2="654.41" y2="2646.57" gradientTransform="matrix(1260.23, 290.67, 168.64, -731.19, -1270662.31, 1746953.66)" xlink:href="#Degradado_sin_nombre_3"/><linearGradient id="Degradado_sin_nombre_5" x1="653.22" y1="2646.95" x2="654.41" y2="2645.85" gradientTransform="matrix(1333.26, 407.62, 433.02, -1416.33, -2017668.95, 3484732.94)" xlink:href="#Degradado_sin_nombre"/><linearGradient id="Degradado_sin_nombre_7" x1="652.55" y1="2647.88" x2="653.65" y2="2649.18" gradientTransform="matrix(683.99, 209.12, 179.91, -588.46, -923004.25, 1424162.78)" xlink:href="#Degradado_sin_nombre_3"/><linearGradient id="Degradado_sin_nombre_8" x1="653.42" y1="2648.12" x2="654.41" y2="2646.57" gradientTransform="matrix(1260.23, 290.67, 168.64, -731.19, -1270662.31, 1749099.66)" xlink:href="#Degradado_sin_nombre_3"/><linearGradient id="Degradado_sin_nombre_13" x1="654.2" y1="2644" x2="655.38" y2="2645.1" gradientTransform="matrix(-1062.18, 284.79, 453.18, 1690.24, -501052.58, -4655584.9)" xlink:href="#Degradado_sin_nombre"/><linearGradient id="Degradado_sin_nombre_14" x1="654.71" y1="2642.66" x2="654.7" y2="2643.61" gradientTransform="matrix(-705.2, 189.07, 191.81, 715.39, -43159.97, -2014393.81)" xlink:href="#Degradado_sin_nombre_3"/><linearGradient id="Degradado_sin_nombre_15" x1="654.39" y1="2642.9" x2="655.49" y2="2641.6" gradientTransform="matrix(-722.66, 193.76, 181.85, 678.27, -5594.81, -1919276.24)" xlink:href="#Degradado_sin_nombre_3"/><linearGradient id="Degradado_sin_nombre_16" x1="654.52" y1="2642.77" x2="655.51" y2="2644.31" gradientTransform="matrix(-979.99, 190.43, 159.47, 820.63, 222369.94, -2292812.4)" xlink:href="#Degradado_sin_nombre_3"/><linearGradient id="Degradado_sin_nombre_17" x1="654.2" y1="2644" x2="655.38" y2="2645.1" gradientTransform="matrix(-1062.18, 284.79, 453.18, 1690.24, -501052.58, -4653438.9)" xlink:href="#Degradado_sin_nombre"/><linearGradient id="Degradado_sin_nombre_18" x1="654.71" y1="2642.66" x2="654.7" y2="2643.61" gradientTransform="matrix(-705.2, 189.07, 191.81, 715.39, -43159.97, -2012247.81)" xlink:href="#Degradado_sin_nombre_3"/><linearGradient id="Degradado_sin_nombre_19" x1="654.39" y1="2642.9" x2="655.49" y2="2641.6" gradientTransform="matrix(-722.66, 193.76, 181.85, 678.27, -5594.81, -1917130.24)" xlink:href="#Degradado_sin_nombre_3"/><linearGradient id="Degradado_sin_nombre_20" x1="654.52" y1="2642.77" x2="655.51" y2="2644.31" gradientTransform="matrix(-979.99, 190.43, 159.47, 820.63, 222369.94, -2290666.4)" xlink:href="#Degradado_sin_nombre_3"/></defs><title>fondo</title><g class="cls-2"><g id="Web_1920_1" data-name="Web 1920 1"><g id="Group_2" data-name="Group 2" class="cls-3"><path class="cls-4" d="M345.92,178.71C398.13,323.33,257.63,446.22,212,595.39c-67.74,221.55,332.64,466.84,125.68,688.2-207.3,211.46-633.34,106.75-915.47-87.31-180.82-124.37-225.94-311.95-257.88-440C-888.87,542.83-752.7,21.49-573.16-102.28-366.71-244.61,225.69-154,345.92,178.71Z"/><path class="cls-5" d="M347.29,160.65c24.7,64.92-25.24,144.83-50.42,183C207.25,479.49,6.78,562.59-159.82,528.62c-213.23-43.53,114-232.44,26.63-415C-176.68,37.14-235.44-69.14-292.53-110.75-292.53-110.75,255.69-80.42,347.29,160.65Z"/><path class="cls-6" d="M140.44,1373.59C-501.25,1499.85-770.21,1130-884.74,871.21c-73.6-166.1-5.64-397.56-5.64-397.56,28.74,8.32,163,88.47,223.9,208.81,32.47,64.21-25.1,290.29,86.9,359.29C-440.31,1127.53-30.93,926,223.84,1132.3,310.93,1209.36,231.6,1354.05,140.44,1373.59Z"/></g><g id="Group_10" data-name="Group 10" class="cls-3"><path id="XMLID_22_2" data-name="XMLID 22 2" class="cls-7" d="M345.92,2324.71c52.21,144.62-88.29,267.51-133.9,416.68-67.74,221.55,332.64,466.84,125.68,688.2-207.3,211.46-633.34,106.75-915.47-87.31-180.82-124.37-225.94-312-257.88-440-53.22-213.47,82.95-734.81,262.49-858.58C-366.71,1901.39,225.69,1992,345.92,2324.71Z"/><path id="XMLID_20_2" data-name="XMLID 20 2" class="cls-8" d="M347.29,2306.65c24.7,64.92-25.24,144.83-50.42,183-89.62,135.81-290.09,218.91-456.69,184.94-213.23-43.53,114-232.44,26.63-415-43.49-76.48-102.25-182.76-159.34-224.37C-292.53,2035.25,255.69,2065.58,347.29,2306.65Z"/><path id="XMLID_19_2" data-name="XMLID 19 2" class="cls-9" d="M140.44,3519.59C-501.25,3645.85-770.21,3276-884.74,3017.21c-73.6-166.1-5.64-397.56-5.64-397.56,28.74,8.32,163,88.47,223.9,208.81,32.47,64.21-25.1,290.29,86.9,359.29,139.27,85.78,548.65-115.77,803.42,90.55C310.93,3355.36,231.6,3500.05,140.44,3519.59Z"/></g><g id="Group_3" data-name="Group 3" class="cls-3"><path id="XMLID_22_4" data-name="XMLID 22 4" class="cls-10" d="M1540.05-76.73C1507.45,82.51,1631,243.4,1678.7,421.43c70.89,264.39-239.5,491.37-54.73,774.8,184.36,272.09,525.56,210.49,742.79,26.14,139.23-118.16,163-327.84,180.22-470.8C2575.6,513.2,2427.78-105.74,2272.27-273,2093.44-465.45,1615.16-443.08,1540.05-76.73Z"/><path id="XMLID_21_4" data-name="XMLID 21 4" class="cls-11" d="M1975.37,385.36c162.25,3.05,520.49,64.11,499-139.08,0,0-49.37-405.33-222.74-547.73-29-23.82-157.74-11.29-157.74-11.29,43.92,16.8,134.58,119,80.26,217.48-70.89,128.55-371.08,213.78-422.27,344.64C1701.9,377.8,1915.12,384.17,1975.37,385.36Z"/><path id="XMLID_20_4" data-name="XMLID 20 4" class="cls-12" d="M1467.82-85.82c-26.83,72,24.72,165.72,50.73,210.6,92.59,159.58,302.56,266.42,478.36,238.46,225-35.86-117-270.62-22.72-472,46.75-83.93,110-200.66,170.59-244.21C2144.78-353,1567.32-353.23,1467.82-85.82Z"/><path id="XMLID_19_4" data-name="XMLID 19 4" class="cls-13" d="M1815.06,1324.61c525,223.5,718.62-153.47,794.73-426.66,48.92-175.37-20.33-441.79-20.33-441.79-22.64,5.54-125.81,77.4-167.37,203.47-22.15,67.28,38.39,326.37-47.55,388.7-106.87,77.46-449.39-199.8-641.8-3.08C1667.38,1119.77,1740.37,1291.07,1815.06,1324.61Z"/></g><g id="Group_9" data-name="Group 9" class="cls-3"><path id="XMLID_22_5" data-name="XMLID 22 5" class="cls-14" d="M1540.05,2069.27c-32.6,159.24,90.92,320.13,138.65,498.16,70.89,264.39-239.5,491.37-54.73,774.8,184.36,272.09,525.56,210.49,742.79,26.14,139.23-118.16,163-327.84,180.22-470.8,28.62-238.37-119.2-857.31-274.71-1024.62C2093.44,1680.55,1615.16,1702.92,1540.05,2069.27Z"/><path id="XMLID_21_5" data-name="XMLID 21 5" class="cls-15" d="M1975.37,2531.36c162.25,3,520.49,64.11,499-139.08,0,0-49.37-405.33-222.74-547.73-29-23.82-157.74-11.29-157.74-11.29,43.92,16.8,134.58,119,80.26,217.48-70.89,128.55-371.08,213.78-422.27,344.64C1701.9,2523.8,1915.12,2530.17,1975.37,2531.36Z"/><path id="XMLID_20_5" data-name="XMLID 20 5" class="cls-16" d="M1467.82,2060.18c-26.83,72,24.72,165.72,50.73,210.6,92.59,159.58,302.56,266.42,478.36,238.46,225-35.86-117-270.62-22.72-472,46.75-83.93,110-200.66,170.59-244.21C2144.78,1793,1567.32,1792.77,1467.82,2060.18Z"/><path id="XMLID_19_5" data-name="XMLID 19 5" class="cls-17" d="M1815.06,3470.61c525,223.5,718.62-153.47,794.73-426.66,48.92-175.37-20.33-441.79-20.33-441.79-22.64,5.54-125.81,77.4-167.37,203.47-22.15,67.28,38.39,326.37-47.55,388.7-106.87,77.46-449.39-199.8-641.8-3.08C1667.38,3265.77,1740.37,3437.07,1815.06,3470.61Z"/></g></g></g></svg>