<svg id="Capa_1" data-name="Capa 1" xmlns="http://www.w3.org/2000/svg" xmlns:xlink="http://www.w3.org/1999/xlink" viewBox="0 0 151 147"><defs><style>.cls-1{fill:none;}.cls-2{fill:#fff;}.cls-3{clip-path:url(#clip-path);}.cls-4{fill:url(#Degradado_sin_nombre);}</style><clipPath id="clip-path"><circle class="cls-1" cx="77.05" cy="73.55" r="69"/></clipPath><linearGradient id="Degradado_sin_nombre" x1="-723.87" y1="-201.63" x2="-722.69" y2="-200.53" gradientTransform="matrix(931.16, 98.26, -90.75, 859.95, 655185.84, 244037.1)" gradientUnits="userSpaceOnUse"><stop offset="0" stop-color="#52e4ff"/><stop offset="1" stop-color="#4b3eff"/></linearGradient></defs><title>Logo</title><g id="Group_14" data-name="Group 14"><circle id="Ellipse_2-2" data-name="Ellipse 2-2" class="cls-2" cx="77.05" cy="73.55" r="69"/><g class="cls-3"><g id="Mask_Group_1" data-name="Mask Group 1"><path class="cls-4" d="M88.35-408.06c54.05,77.94-21.41,163.09-31,253.67C43.18-19.88,339.61,80.4,234,229.05c-107.21,143-401.27,126.31-613,43.44C-514.77,219.37-570,116-608.51,45.49c-64.11-117.49-46-431.65,55-521.3C-437.45-578.89-36.07-587.35,88.35-408.06Z"/></g></g><g id="Group_1" data-name="Group 1"><path id="Path_1" data-name="Path 1" class="cls-2" d="M67.21,58.81l-4.14,1.51c-.41-1.8-1.83-2-3.25-2.17a7.32,7.32,0,0,0-3,.23,3.49,3.49,0,0,0-2.52,2.67,3.22,3.22,0,0,0,1.3,3.28,7.13,7.13,0,0,0,1.65,1c1.71.75,3.46,1.41,5.15,2.19a19,19,0,0,1,3.09,1.71,6.81,6.81,0,0,1,2,9.32,7.35,7.35,0,0,1-4.68,3.57,17.06,17.06,0,0,1-9.37-.26,6.26,6.26,0,0,1-4-3.81c-2.15-5.21-4.34-10.4-6.52-15.6-.14-.34-.3-.67-.53-1.18L39,68.86c2.07.25,4,0,6,.29l-7.27,2.66-3.66,8.37-4.83,1.75-.16-.18L40.48,55.62h4.29c.13.27.29.52.4.8l7.62,18.37c.17.42.32.85.49,1.28a4.74,4.74,0,0,0,3.75,3A7.64,7.64,0,0,0,60.65,79a4.66,4.66,0,0,0,2.28-1.46,3.32,3.32,0,0,0-.12-4.69,3.12,3.12,0,0,0-.59-.44,36.72,36.72,0,0,0-4-1.92c-1.32-.6-2.7-1.08-4-1.75a11.21,11.21,0,0,1-2.58-1.86,6.87,6.87,0,0,1,0-9.7,6.69,6.69,0,0,1,1.72-1.26,10.14,10.14,0,0,1,3.49-1,15.85,15.85,0,0,1,6.78.46A5.43,5.43,0,0,1,67.21,58.81Z"/><path id="Path_2" data-name="Path 2" class="cls-2" d="M90.36,60.69,86.9,62.05c-.11-.08-.21-.12-.22-.17a3.15,3.15,0,0,0-2.52-2.76,6.28,6.28,0,0,0-7.73,3.18,13.65,13.65,0,0,0-1.34,5.75,16.26,16.26,0,0,0,.81,6.42A10.66,10.66,0,0,0,77,76.73a5.7,5.7,0,0,0,4.73,2.75,11.18,11.18,0,0,0,4.94-.89V72.4c0-.21,0-.41-.07-.62l-6-2.68v-.17H90.4V80.78c-.4.18-.86.42-1.35.62a17.07,17.07,0,0,1-8.7,1.31c-4.31-.55-7-3.1-8.55-7a14.73,14.73,0,0,1-.9-4.35,25.69,25.69,0,0,1,.4-7.16,10.62,10.62,0,0,1,11.81-8.65,9.73,9.73,0,0,1,4.24,1.24A6.58,6.58,0,0,1,90.36,60.69Z"/><path id="Path_3" data-name="Path 3" class="cls-2" d="M125.86,59.25c-.79.52-1.37.88-1.93,1.27a6.53,6.53,0,0,0-2.08,2.38l-5,9.23c-.93,1.71-1.87,3.4-2.76,5.14A5.87,5.87,0,0,1,111,80.18l-.43.21A12.6,12.6,0,0,1,112,81.46,11.4,11.4,0,0,1,113,83c1.11,1.64,2.21,3.29,3.35,4.91s2.12,3.16,3.94,4A8.69,8.69,0,0,1,114.78,90c-2.62-2.09-5.2-4.23-7.82-6.31a27.91,27.91,0,0,0-2.62-1.83,6.62,6.62,0,0,0-3-.89c-2.23-.17-4.46-.42-6.68-.67a9.52,9.52,0,0,1-1.39-.38,9.73,9.73,0,0,1,3.28-.66c1.47-.16,3-.2,4.44-.28a2.31,2.31,0,0,0,1.56-.6c.92-.86,1.85-1.7,2.7-2.62,4.13-4.48,8.24-9,12.36-13.48a4.65,4.65,0,0,1,1-.88A21.93,21.93,0,0,1,125.86,59.25Z"/><path id="Path_4" data-name="Path 4" class="cls-2" d="M74.34,86.72v2.33a2.56,2.56,0,0,1-2.3.38,2.33,2.33,0,0,1-1.55-2.38,2.58,2.58,0,0,1,1.42-2.74,2.06,2.06,0,0,1,2.28.55.83.83,0,0,1,.14.3,1,1,0,0,1,0,.24c-.25.28-.48.2-.77,0-1-.72-1.75-.46-2,.68a4.15,4.15,0,0,0,0,1.57c.2,1,.71,1.28,1.92,1l.12-1-1.13-.27.07-.52c.32,0,.61-.06.91-.07S74,86.72,74.34,86.72Z"/><path id="Path_5" data-name="Path 5" class="cls-2" d="M30.35,84.32l.83-.07,1.94,5.08-.94.06-.54-1.25H29.75l-.62,1.21h-.84Zm1,3-.66-1.61-.6,1.53Z"/><path id="Path_6" data-name="Path 6" class="cls-2" d="M53.34,89.29l-.08,1.32h-.71V85.76l1.78-.18a1.09,1.09,0,0,1,.44.06,2.08,2.08,0,0,1,1,2.51A1.54,1.54,0,0,1,54,89.45h-.19A3.7,3.7,0,0,0,53.34,89.29Zm.76-.53c.76-.5.92-.84.8-1.6-.1-.56-.22-.66-1-.81C53,87.26,53,88.05,54.1,88.76Z"/><path id="Path_7" data-name="Path 7" class="cls-2" d="M42.34,85.22c-.41.27-.65.07-1-.12-.56-.36-.77-.27-1.35.47a6.63,6.63,0,0,0,.81.68c.34.22.76.35,1.1.58a1.45,1.45,0,0,1-.66,2.64,3.69,3.69,0,0,1-1.24,0,1.08,1.08,0,0,1-1-1.15v0h0c.39-.24.62-.15.94.21.6.66,1.2.48,1.63-.54-.31-.2-.63-.44-1-.64a10.35,10.35,0,0,1-1.07-.63,1.21,1.21,0,0,1-.4-1.44,1.29,1.29,0,0,1,1.16-1c.67,0,1.4-.2,1.85.52A1.44,1.44,0,0,1,42.34,85.22Z"/><path id="Path_8" data-name="Path 8" class="cls-2" d="M88.39,89.28V90a1.73,1.73,0,0,1-.07.59h-.58a16.43,16.43,0,0,1,0-4.85c.57-.06,1.14-.13,1.72-.18a.65.65,0,0,1,.34,0,2,2,0,0,1,1,2.47,1.51,1.51,0,0,1-1.59,1.42h0a1,1,0,0,1-.24,0A5.62,5.62,0,0,1,88.39,89.28Zm.83-.54a1.43,1.43,0,0,0,.67-1.92h0v-.08a.7.7,0,0,0-1.27,0,2.54,2.54,0,0,0-.16,1.09A.93.93,0,0,0,89.22,88.74Z"/><path id="Path_9" data-name="Path 9" class="cls-2" d="M48.83,89.27,48.7,90.6l-.51.07c-.3-.3-.34-3.71-.09-4.91.5-.06,1-.13,1.5-.17a1.69,1.69,0,0,1,.67.08,2,2,0,0,1,1,2.51,1.5,1.5,0,0,1-1.7,1.27h0l-.25,0Zm.9-3c-.71,0-.87.58-.9,1.11s.09,1.15.79,1.3a1,1,0,0,0,.86-1.12s0,0,0-.06A1.12,1.12,0,0,0,49.73,86.27Z"/><path id="Path_10" data-name="Path 10" class="cls-2" d="M60.33,87.55a1.78,1.78,0,0,1-1.61,1.92h-.17a2,2,0,0,1-1.1-3.85,2,2,0,0,1,.78-.06,2,2,0,0,1,2.11,1.79A1.34,1.34,0,0,1,60.33,87.55Zm-1.78,1.18c.72-.17.91-.71.86-1.37a1,1,0,0,0-.93-1,1.13,1.13,0,0,0-.82,1.25A1.06,1.06,0,0,0,58.55,88.73Z"/><path id="Path_11" data-name="Path 11" class="cls-2" d="M78.55,87.52c0-1.23.65-2,1.73-2a2,2,0,0,1,0,3.9C79.23,89.47,78.55,88.73,78.55,87.52Zm1.67-1.22a1.2,1.2,0,0,0-.85,1.34,1.06,1.06,0,0,0,.94,1.09,1.09,1.09,0,0,0,.82-1.2A1.12,1.12,0,0,0,80.22,86.3Z"/><path id="Path_12" data-name="Path 12" class="cls-2" d="M86.12,89.31c-.59.06-1.09.12-1.6.16a1.12,1.12,0,0,1-1.3-.9v-.19c0-.86,0-1.73,0-2.66H84l.13,2.73c.94.17,1.2,0,1.27-.69a19.06,19.06,0,0,0,0-2l.67-.11A8.72,8.72,0,0,1,86.12,89.31Z"/><path id="Path_13" data-name="Path 13" class="cls-2" d="M43.64,85.63l.69.08c.07,1,.13,1.87.19,2.76,1,.1,1.21,0,1.27-.76s0-1.27,0-2l.79-.08v3.64c-.6.06-1.13.13-1.67.17a1.1,1.1,0,0,1-1.25-.92v-.1C43.6,87.55,43.64,86.65,43.64,85.63Z"/><path id="Path_14" data-name="Path 14" class="cls-2" d="M65.17,84.86c.15,0,.34,0,.42.12a2.16,2.16,0,0,1,.21.55l.94.27v.53l-1,.25c0,.65.06,1.31.1,2l1.14.16c-.1.24-.12.52-.25.6a1.21,1.21,0,0,1-1.62-.47,1.28,1.28,0,0,1-.13-.39,12.78,12.78,0,0,1,0-1.75l-.7-.64Z"/><path id="Path_15" data-name="Path 15" class="cls-2" d="M62.34,89.32l-.63.09c-.32-.3-.35-2.53-.09-3.67l1.93-.15.17.73a2.35,2.35,0,0,1-.37.14c-.8.12-.94.23-1,.94S62.34,88.6,62.34,89.32Z"/><path id="Path_16" data-name="Path 16" class="cls-2" d="M75.71,85.74l2-.14.12.75-1.13.27c0,.44-.13.88-.15,1.32s0,.89,0,1.39l-.8.06Z"/><path id="Path_17" data-name="Path 17" class="cls-2" d="M38.15,85.6l.08.66c-.07.06-.09.1-.13.11l-.84.21c-.61.84-.23,1.81-.46,2.73l-.47.1c-.32-.29-.37-1.89-.16-3.67Z"/><path id="Path_18" data-name="Path 18" class="cls-2" d="M34.74,89.35h-.67V85.74l.67-.07Z"/><path id="Path_19" data-name="Path 19" class="cls-2" d="M34.78,84.49v.58l-.69.06v-.68Z"/></g></g></svg>